<svg width="304" height="58" viewBox="0 0 304 58" fill="none" xmlns="http://www.w3.org/2000/svg">
<path d="M81.8788 19.8863L87.9019 31.4946L93.8545 19.8863H97.528L97.7484 20.1067V37.96H94.5157V25.1762L88.7174 36.2078L86.6521 36.052L80.9971 25.1762V37.96H77.9114V19.8863H81.8788Z" fill="white"/>
<path d="M188.411 37.96V19.8863H196.566C204.062 19.8863 208.02 29.2648 203.181 34.8765C202.02 36.2225 199.094 37.96 197.301 37.96H188.411ZM191.791 22.972V34.8008L192.011 35.0212H196.272C201.623 35.0212 203.7 27.3803 199.505 24.1476C198.971 23.7354 197.347 22.972 196.713 22.972H191.791Z" fill="white"/>
<path d="M216.447 19.7827C230.094 18.3882 231.1 37.1107 218.883 38.2355C205.959 39.425 204.517 21.0016 216.447 19.7827ZM216.882 22.8633C209.284 23.8985 210.571 35.8698 218.443 35.1498C226.377 34.4239 225.399 21.7032 216.882 22.8633Z" fill="white"/>
<path d="M148.296 27.6742H157.26V19.8863H160.639V37.96H157.26V30.613H148.296V37.96H144.77V19.8863H148.076L148.296 20.1067V27.6742Z" fill="white"/>
<path d="M121.112 37.96H117.512L115.725 34.1631L106.99 34.2299L105.536 37.9593H101.863L109.663 20.1185C109.769 19.8914 109.947 19.9017 110.157 19.8775C110.698 19.815 112.611 19.7952 113.104 19.8856C113.268 19.9157 113.385 19.9568 113.459 20.1185L121.112 37.96ZM114.647 31.2008L111.487 23.7053L108.328 31.2008H114.647Z" fill="white"/>
<path d="M184.15 37.96H180.55L178.763 34.1631L170.029 34.2307L168.354 37.96H164.901L172.835 19.9583C173.411 19.9003 176.189 19.7313 176.437 20.0318L184.15 37.96ZM177.537 31.2008L174.597 23.7068L171.366 31.2008H177.537Z" fill="white"/>
<path d="M138.138 25.0086C137.846 25.1784 136.657 23.9521 136.198 23.6818C130.413 20.2735 124.345 27.0401 128.043 32.4248C130.179 35.5348 134.043 35.681 137.03 33.673C137.345 33.4614 137.71 32.8648 138.065 32.9721L139.909 35.1152C139.976 35.473 137.702 36.9417 137.279 37.1548C129.751 40.9525 121.474 34.3849 123.832 26.2055C125.806 19.3602 135.167 17.5279 139.911 22.6245L138.138 25.0086Z" fill="white"/>
<path d="M242.412 19.8863L249.684 33.4049L256.665 19.8863H258.796V37.96L257.179 37.9608L257.031 22.6789L250.103 36.0263L249.165 36.0601L241.898 22.5312V37.96H240.281V19.8863H242.412Z" fill="white"/>
<path d="M274.053 19.7753C281.891 19.5638 286.821 28.5257 281.647 34.7295C277.526 39.6704 269.59 39.2149 266.227 33.6877C262.474 27.5184 267 19.9656 274.052 19.7761L274.053 19.7753ZM273.901 21.3998C268.769 21.6577 265.364 26.8586 267.207 31.6798C269.373 37.348 277.194 38.3105 280.603 33.2447C284.012 28.1789 280.169 21.0853 273.901 21.3998Z" fill="white"/>
<path d="M288.895 20.0582L295.382 35.9029L301.568 20.2669C301.895 19.8091 302.934 20.1192 303.465 20.0347L296.249 37.9439H294.225L287.013 20.2478C286.968 19.9539 287.023 20.0597 287.225 20.0332C287.46 20.0031 288.794 19.9965 288.895 20.0582Z" fill="white"/>
<path d="M232.304 35.933C234.014 35.4209 234.526 37.8844 232.939 38.1974C231.352 38.5103 231.233 36.2541 232.304 35.933Z" fill="white"/>
<path d="M28.5928 0.0213065L29.3356 0C52.3686 0.293882 66.1833 26.3282 52.8733 45.5451C40.7397 63.0627 14.2983 61.8886 3.81115 43.355C-7.09702 24.0778 6.725 0.384986 28.5928 0.0213065ZM27.2652 1.28573C8.58968 2.27538 -3.6586 21.7385 3.1411 39.1554C11.0833 59.4979 38.5789 63.1083 51.4818 45.4188C65.4265 26.3003 50.7177 0.0433477 27.2652 1.28573Z" fill="white"/>
<path d="M28.4032 2.55017L30.8498 2.59572C50.6971 3.96815 62.1248 26.1577 51.4568 43.1177C40.8315 60.01 15.9037 59.4913 6.02338 42.1537C-3.92454 24.6986 8.46113 3.0696 28.4032 2.55017ZM17.2247 19.2868L39.858 6.23031C33.3206 3.00642 25.4064 2.99172 18.7624 5.93495C17.8404 6.34345 16.9183 6.80852 16.0866 7.36836V30.9201L21.0812 28.0746V38.0644L14.6951 34.3659V8.22209C7.83663 12.9147 3.60913 20.9972 3.7671 29.361L24.2426 41.1626V35.4091L32.9033 40.4352L26.5136 44.1036L3.82146 31.0472C3.99706 32.543 4.21674 34.0286 4.59805 35.4863C6.31505 42.0472 10.7901 47.8367 16.7405 51.0753L37.1411 39.3281C35.6974 38.2914 33.9951 37.5574 32.5066 36.5979C32.4316 36.5494 32.1348 36.3988 32.2098 36.2952L40.8712 31.3624V38.7601L18.2364 51.9106C22.9973 54.0861 28.2445 54.8068 33.422 53.9149C36.4402 53.3947 39.4128 52.2831 42.0093 50.6785V27.1268L36.9515 29.9723V19.9825L43.3376 23.5863V49.8248C50.2049 45.1954 54.5051 37.0233 54.2649 28.6858L33.8533 16.8835V22.637L25.1287 17.6102L31.2583 14.0674L31.5926 13.9859L54.212 26.9997C53.6066 18.7063 48.6084 10.9016 41.3091 6.98779L20.9849 18.7159L20.993 18.8467L25.8869 21.6577L17.2254 26.6845L17.2247 19.2868Z" fill="white"/>
</svg>
