<svg width="37" height="30" viewBox="0 0 37 30" fill="none" xmlns="http://www.w3.org/2000/svg">
<path d="M33 25.6667H29.3333V9.625L18.3333 16.5L7.33333 9.625V25.6667H3.66667V3.66667H5.86667L18.3333 11.4583L30.8 3.66667H33M33 0H3.66667C1.63167 0 0 1.63167 0 3.66667V25.6667C0 26.6391 0.386308 27.5718 1.07394 28.2594C1.76157 28.947 2.69421 29.3333 3.66667 29.3333H33C33.9725 29.3333 34.9051 28.947 35.5927 28.2594C36.2804 27.5718 36.6667 26.6391 36.6667 25.6667V3.66667C36.6667 2.69421 36.2804 1.76157 35.5927 1.07394C34.9051 0.386308 33.9725 0 33 0Z" fill="#F8F9FA"/>
</svg>
